<svg width="575" height="485" viewBox="0 0 575 485" fill="none" xmlns="http://www.w3.org/2000/svg">
<path fill-rule="evenodd" clip-rule="evenodd" d="M2.73167 149.748C2.42993 149.748 2.18532 149.993 2.18532 150.294V159.936C0.938456 160.189 0 161.292 0 162.613V220.202C0 221.523 0.938456 222.626 2.18532 222.879V259.542C2.18532 259.844 2.42993 260.089 2.73167 260.089C3.0334 260.089 3.27801 259.844 3.27801 259.542V222.879C4.52497 222.626 5.46351 221.523 5.46351 220.202V162.613C5.46351 161.292 4.52497 160.189 3.27801 159.936V150.294C3.27801 149.993 3.0334 149.748 2.73167 149.748Z" fill="#30DEAB"/>
<path fill-rule="evenodd" clip-rule="evenodd" d="M15.5186 220.682C13.5856 220.682 12.0186 222.249 12.0186 224.182V297.123C12.0186 298.982 13.4675 300.502 15.2975 300.616V314.713C15.2975 315.015 15.5421 315.26 15.8438 315.26C16.1456 315.26 16.3902 315.015 16.3902 314.713V300.616C18.2194 300.501 19.6674 298.981 19.6674 297.123V224.182C19.6674 222.249 18.1004 220.682 16.1674 220.682H15.5186Z" fill="#30DEAB"/>
<path fill-rule="evenodd" clip-rule="evenodd" d="M27.8622 173.392C27.5604 173.392 27.3158 173.637 27.3158 173.939V310.762C25.4863 310.876 24.0378 312.397 24.0378 314.255V324.144C24.0378 326.002 25.4863 327.522 27.3158 327.637V340.609C27.3158 340.911 27.5604 341.155 27.8622 341.155C28.1639 341.155 28.4085 340.911 28.4085 340.609V327.637C30.2382 327.523 31.6867 326.002 31.6867 324.144V314.255C31.6867 312.396 30.2382 310.876 28.4085 310.762V173.939C28.4085 173.637 28.1639 173.392 27.8622 173.392Z" fill="#30DEAB"/>
<path fill-rule="evenodd" clip-rule="evenodd" d="M39.8837 275.852C39.5819 275.852 39.3373 276.097 39.3373 276.398V296.126C37.5078 296.24 36.0593 297.76 36.0593 299.619V307.256C36.0593 309.189 37.6263 310.756 39.5593 310.756H40.2082C42.1412 310.756 43.7082 309.189 43.7082 307.256V299.619C43.7082 297.76 42.2597 296.24 40.43 296.126V276.398C40.43 276.097 40.1854 275.852 39.8837 275.852Z" fill="#30DEAB"/>
<path fill-rule="evenodd" clip-rule="evenodd" d="M52.9965 265.718C52.6947 265.718 52.4501 265.963 52.4501 266.265V296.125C50.6205 296.24 49.1721 297.76 49.1721 299.619V441.241C49.1721 443.174 50.7391 444.741 52.6721 444.741H53.321C55.254 444.741 56.821 443.174 56.821 441.241V299.619C56.821 297.76 55.3725 296.24 53.5428 296.125V266.265C53.5428 265.963 53.2982 265.718 52.9965 265.718Z" fill="#30DEAB"/>
<path fill-rule="evenodd" clip-rule="evenodd" d="M63.9222 392.948C63.6205 392.948 63.3759 393.192 63.3759 393.494V408.717C61.5463 408.832 60.0979 410.352 60.0979 412.211V440.114C60.0979 442.047 61.6649 443.614 63.5979 443.614H64.2468C66.1798 443.614 67.7468 442.047 67.7468 440.114V412.211C67.7468 410.352 66.2982 408.832 64.4686 408.717V393.494C64.4686 393.192 64.224 392.948 63.9222 392.948Z" fill="#FF5972"/>
<path fill-rule="evenodd" clip-rule="evenodd" d="M75.9221 401.955H73.2427C72.6211 401.955 72.1172 401.451 72.1172 400.83C72.1172 400.208 72.6211 399.704 73.2427 399.704H75.9205C75.9274 399.704 75.9344 399.704 75.9414 399.704C75.9484 399.704 75.9554 399.704 75.9624 399.704H78.6405C79.2622 399.704 79.7661 400.208 79.7661 400.83C79.7661 401.451 79.2622 401.955 78.6405 401.955H75.9608C75.9544 401.955 75.9479 401.956 75.9414 401.956C75.9349 401.956 75.9285 401.955 75.9221 401.955Z" fill="#FF5972"/>
<path fill-rule="evenodd" clip-rule="evenodd" d="M89.0533 313.007C88.7516 313.007 88.507 313.252 88.507 313.553V367.631C88.507 367.925 88.7393 368.165 89.0304 368.177H88.0438C86.4892 368.177 85.229 369.437 85.229 370.992C85.229 372.546 86.4892 373.807 88.0438 373.807H90.0631C91.6177 373.807 92.8779 372.546 92.8779 370.992C92.8779 369.437 91.6177 368.177 90.0631 368.177H89.0763C89.3674 368.165 89.5997 367.925 89.5997 367.631V313.553C89.5997 313.252 89.3551 313.007 89.0533 313.007Z" fill="#FF5972"/>
<path fill-rule="evenodd" clip-rule="evenodd" d="M100.75 372.682C98.8175 372.682 97.2505 374.249 97.2505 376.182V406.338C97.2505 408.271 98.8175 409.838 100.75 409.838H101.399C103.332 409.838 104.899 408.271 104.899 406.338V376.182C104.899 374.249 103.332 372.682 101.399 372.682H100.75Z" fill="#30DEAB"/>
<path fill-rule="evenodd" clip-rule="evenodd" d="M114.176 408.711H110.395C109.774 408.711 109.27 408.207 109.27 407.586C109.27 406.964 109.774 406.46 110.395 406.46H114.166C114.173 406.46 114.18 406.46 114.187 406.46C114.194 406.46 114.201 406.46 114.208 406.46H117.978C118.6 406.46 119.104 406.964 119.104 407.586C119.104 408.207 118.6 408.711 117.978 408.711H114.199C114.195 408.712 114.191 408.712 114.187 408.712C114.184 408.712 114.18 408.712 114.176 408.711Z" fill="#FF5972"/>
<path fill-rule="evenodd" clip-rule="evenodd" d="M125.882 373.807C123.949 373.807 122.382 375.375 122.382 377.307V413.093C122.382 414.951 123.831 416.472 125.661 416.586V467.839C125.661 468.141 125.905 468.385 126.207 468.385C126.509 468.385 126.753 468.141 126.753 467.839V416.586C128.583 416.471 130.031 414.951 130.031 413.093V377.307C130.031 375.374 128.464 373.807 126.531 373.807H125.882Z" fill="#FF5972"/>
<path fill-rule="evenodd" clip-rule="evenodd" d="M138.225 328.771C137.923 328.771 137.679 329.016 137.679 329.317V364.808C135.849 364.922 134.401 366.442 134.401 368.301V388.323C134.401 390.181 135.849 391.701 137.679 391.816V483.602C137.679 483.904 137.923 484.149 138.225 484.149C138.527 484.149 138.772 483.904 138.772 483.602V391.816C140.601 391.702 142.05 390.181 142.05 388.323V368.301C142.05 366.442 140.601 364.922 138.772 364.808V329.317C138.772 329.016 138.527 328.771 138.225 328.771Z" fill="#30DEAB"/>
<path fill-rule="evenodd" clip-rule="evenodd" d="M150.244 292.741C149.943 292.741 149.698 292.986 149.698 293.288V320.897C147.869 321.011 146.42 322.531 146.42 324.39V389.449C146.42 391.307 147.869 392.827 149.698 392.942V427.306C149.698 427.608 149.943 427.852 150.244 427.852C150.546 427.852 150.791 427.608 150.791 427.306V392.942C152.621 392.828 154.069 391.307 154.069 389.449V324.39C154.069 322.531 152.621 321.011 150.791 320.896V293.288C150.791 292.986 150.546 292.741 150.244 292.741Z" fill="#FF5972"/>
<path fill-rule="evenodd" clip-rule="evenodd" d="M161.942 313.007C160.009 313.007 158.442 314.574 158.442 316.507V327.522C158.442 329.455 160.009 331.022 161.942 331.022H163.347C163.351 331.022 163.355 331.022 163.359 331.022C163.363 331.022 163.367 331.022 163.371 331.022H164.776C166.709 331.022 168.276 329.455 168.276 327.522V316.507C168.276 314.574 166.709 313.007 164.776 313.007H161.942Z" fill="#FF5972"/>
<path fill-rule="evenodd" clip-rule="evenodd" d="M175.379 249.955C175.077 249.955 174.832 250.2 174.832 250.502V263.473C173.003 263.587 171.554 265.108 171.554 266.966V286.988C171.554 288.847 173.003 290.367 174.832 290.481V329.35C174.832 329.651 175.077 329.896 175.379 329.896C175.68 329.896 175.925 329.651 175.925 329.35V290.481C177.755 290.367 179.203 288.847 179.203 286.988V266.966C179.203 265.108 177.755 263.587 175.925 263.473V250.502C175.925 250.2 175.68 249.955 175.379 249.955Z" fill="#FF5972"/>
<path fill-rule="evenodd" clip-rule="evenodd" d="M187.397 239.822C187.096 239.822 186.851 240.067 186.851 240.369V253.34C185.021 253.455 183.573 254.975 183.573 256.833V276.855C183.573 278.714 185.021 280.234 186.851 280.348V403.661C186.851 403.963 187.096 404.207 187.397 404.207C187.699 404.207 187.944 403.963 187.944 403.661V280.348C189.773 280.234 191.222 278.714 191.222 276.855V256.833C191.222 254.975 189.773 253.454 187.944 253.34V240.369C187.944 240.067 187.699 239.822 187.397 239.822Z" fill="#FF5972"/>
<path fill-rule="evenodd" clip-rule="evenodd" d="M200.51 192.533C200.208 192.533 199.964 192.778 199.964 193.08V206.051C198.134 206.166 196.686 207.686 196.686 209.544V248.707C196.686 250.64 198.253 252.207 200.186 252.207H200.834C202.767 252.207 204.334 250.64 204.334 248.707V209.544C204.334 207.686 202.886 206.165 201.056 206.051V193.08C201.056 192.778 200.812 192.533 200.51 192.533Z" fill="#FF5972"/>
<path fill-rule="evenodd" clip-rule="evenodd" d="M212.529 24.7711C212.227 24.7711 211.983 25.0157 211.983 25.3175V29.282C210.153 29.3966 208.705 30.9167 208.705 32.7751V154.131C208.705 155.989 210.153 157.509 211.983 157.624V173.973C211.983 174.275 212.227 174.519 212.529 174.519C212.831 174.519 213.075 174.275 213.075 173.973V157.624C214.905 157.509 216.353 155.989 216.353 154.131V32.7751C216.353 30.9166 214.905 29.3965 213.075 29.282V25.3175C213.075 25.0157 212.831 24.7711 212.529 24.7711Z" fill="#FF5972"/>
<path fill-rule="evenodd" clip-rule="evenodd" d="M224.551 0C224.249 0 224.004 0.244611 224.004 0.54635V34.9112C222.175 35.0257 220.726 36.5458 220.726 38.4042V39.2857C220.726 41.1442 222.175 42.6643 224.004 42.7788V47.8685C224.004 48.1702 224.249 48.4148 224.551 48.4148C224.852 48.4148 225.097 48.1702 225.097 47.8685V42.7788C226.927 42.6644 228.375 41.1442 228.375 39.2857V38.4042C228.375 36.5457 226.927 35.0256 225.097 34.9112V0.546348C225.097 0.244608 224.852 0 224.551 0Z" fill="#30DEAB"/>
<path fill-rule="evenodd" clip-rule="evenodd" d="M236.569 48.415C236.267 48.415 236.023 48.6596 236.023 48.9614V60.8074C234.193 60.9219 232.745 62.442 232.745 64.3005V106.841C232.745 108.7 234.193 110.22 236.023 110.334V202.121C236.023 202.422 236.267 202.667 236.569 202.667C236.871 202.667 237.116 202.422 237.116 202.121V110.334C238.945 110.22 240.394 108.7 240.394 106.841V64.3005C240.394 62.4419 238.945 60.9218 237.116 60.8074V48.9614C237.116 48.6596 236.871 48.415 236.569 48.415Z" fill="#30DEAB"/>
<path fill-rule="evenodd" clip-rule="evenodd" d="M248.264 111.466C246.331 111.466 244.764 113.033 244.764 114.966V119.226C244.764 121.159 246.331 122.726 248.264 122.726H248.913C250.846 122.726 252.413 121.159 252.413 119.226V114.966C252.413 113.033 250.846 111.466 248.913 111.466H248.264Z" fill="#30DEAB"/>
<path fill-rule="evenodd" clip-rule="evenodd" d="M261.376 127.229C259.443 127.229 257.876 128.796 257.876 130.729V203.67C257.876 205.528 259.324 207.048 261.153 207.163V278.683C261.153 278.985 261.398 279.229 261.7 279.229C262.001 279.229 262.246 278.985 262.246 278.683V207.163C264.076 207.049 265.525 205.529 265.525 203.67V130.729C265.525 128.796 263.958 127.229 262.025 127.229H261.376Z" fill="#30DEAB"/>
<path fill-rule="evenodd" clip-rule="evenodd" d="M274.812 199.289C274.511 199.289 274.266 199.533 274.266 199.835V209.423C272.447 209.476 270.988 210.968 270.988 212.8C270.988 214.632 272.447 216.123 274.266 216.176V246.031C274.266 246.333 274.511 246.577 274.812 246.577C275.114 246.577 275.359 246.333 275.359 246.031V216.176C277.178 216.123 278.637 214.632 278.637 212.8C278.637 210.968 277.178 209.476 275.359 209.423V199.835C275.359 199.533 275.114 199.289 274.812 199.289Z" fill="#FF5972"/>
<path fill-rule="evenodd" clip-rule="evenodd" d="M286.51 219.555C284.577 219.555 283.01 221.122 283.01 223.055V259.967C283.01 261.825 284.458 263.345 286.287 263.46V277.557C286.287 277.859 286.532 278.103 286.834 278.103C287.135 278.103 287.38 277.859 287.38 277.557V263.46C289.21 263.345 290.658 261.825 290.658 259.967V223.055C290.658 221.122 289.091 219.555 287.158 219.555H286.51Z" fill="#30DEAB"/>
<path fill-rule="evenodd" clip-rule="evenodd" d="M298.854 48.4152C298.552 48.4152 298.308 48.6598 298.308 48.9615V246.585C296.478 246.7 295.03 248.22 295.03 250.078V256.589C295.03 258.448 296.478 259.968 298.308 260.082V274.18C298.308 274.482 298.552 274.726 298.854 274.726C299.156 274.726 299.4 274.482 299.4 274.18V260.083C301.23 259.968 302.679 258.448 302.679 256.589V250.078C302.679 248.22 301.23 246.7 299.4 246.585V48.9615C299.4 48.6598 299.156 48.4152 298.854 48.4152Z" fill="#30DEAB"/>
<path fill-rule="evenodd" clip-rule="evenodd" d="M310.325 313.001C308.496 312.886 307.048 311.366 307.048 309.508V264.715C307.048 262.782 308.615 261.215 310.548 261.215H310.85C310.857 261.215 310.864 261.214 310.872 261.214C310.879 261.214 310.887 261.215 310.894 261.215H311.197C313.13 261.215 314.697 262.782 314.697 264.715V309.508C314.697 311.366 313.248 312.887 311.418 313.001V334.979C311.418 335.281 311.173 335.526 310.872 335.526C310.57 335.526 310.325 335.281 310.325 334.979V313.001Z" fill="#30DEAB"/>
<path fill-rule="evenodd" clip-rule="evenodd" d="M323.966 313.008H320.193C319.571 313.008 319.067 312.504 319.067 311.882C319.067 311.26 319.571 310.756 320.193 310.756H323.97C323.975 310.756 323.98 310.756 323.986 310.756C323.991 310.756 323.996 310.756 324.001 310.756H327.776C328.398 310.756 328.902 311.26 328.902 311.882C328.902 312.504 328.398 313.008 327.776 313.008H324.005C323.998 313.008 323.992 313.008 323.986 313.008C323.979 313.008 323.973 313.008 323.966 313.008Z" fill="#FF5972"/>
<path fill-rule="evenodd" clip-rule="evenodd" d="M335.682 328.771C333.749 328.771 332.182 330.338 332.182 332.271V342.16C332.182 344.018 333.63 345.538 335.46 345.653V355.247C335.46 355.549 335.704 355.794 336.006 355.794C336.308 355.794 336.552 355.549 336.552 355.247V345.653C338.382 345.539 339.831 344.018 339.831 342.16V332.271C339.831 330.338 338.264 328.771 336.331 328.771H335.682Z" fill="#30DEAB"/>
<path fill-rule="evenodd" clip-rule="evenodd" d="M344.233 344.534C343.612 344.534 343.108 345.038 343.108 345.66C343.108 346.281 343.612 346.785 344.233 346.785H348.002C348.01 346.786 348.017 346.786 348.025 346.786C348.033 346.786 348.04 346.786 348.048 346.785H351.816C352.438 346.785 352.942 346.281 352.942 345.66C352.942 345.038 352.438 344.534 351.816 344.534H348.025H344.233Z" fill="#FF5972"/>
<path fill-rule="evenodd" clip-rule="evenodd" d="M360.027 359.17H356.253C355.631 359.17 355.127 358.666 355.127 358.044C355.127 357.422 355.631 356.918 356.253 356.918H360.03C360.035 356.918 360.04 356.918 360.045 356.918C360.05 356.918 360.056 356.918 360.061 356.918H363.836C364.458 356.918 364.962 357.422 364.962 358.044C364.962 358.666 364.458 359.17 363.836 359.17H360.063C360.057 359.17 360.051 359.17 360.045 359.17C360.039 359.17 360.033 359.17 360.027 359.17Z" fill="#FF5972"/>
<path fill-rule="evenodd" clip-rule="evenodd" d="M373.138 359.169H369.365C368.743 359.169 368.239 358.665 368.239 358.044C368.239 357.422 368.743 356.918 369.365 356.918H373.14C373.145 356.918 373.15 356.918 373.156 356.918C373.161 356.918 373.166 356.918 373.171 356.918H376.948C377.57 356.918 378.074 357.422 378.074 358.044C378.074 358.665 377.57 359.169 376.948 359.169H373.174C373.168 359.169 373.162 359.169 373.156 359.169C373.15 359.169 373.144 359.169 373.138 359.169Z" fill="#FF5972"/>
<path fill-rule="evenodd" clip-rule="evenodd" d="M384.851 333.274C382.918 333.274 381.351 334.841 381.351 336.774V344.411C381.351 346.344 382.918 347.911 384.851 347.911H385.5C387.433 347.911 389 346.344 389 344.411V336.774C389 334.841 387.433 333.274 385.5 333.274H384.851Z" fill="#FF5972"/>
<path fill-rule="evenodd" clip-rule="evenodd" d="M409.985 288.237C408.052 288.237 406.485 289.804 406.485 291.737V330.9C406.485 332.833 408.052 334.4 409.985 334.4H410.634C412.567 334.4 414.134 332.833 414.134 330.9V291.737C414.134 289.804 412.567 288.237 410.634 288.237H409.985Z" fill="#FF5972"/>
<path fill-rule="evenodd" clip-rule="evenodd" d="M422.328 243.2C422.026 243.2 421.782 243.444 421.782 243.746V256.717C419.952 256.832 418.504 258.352 418.504 260.211V299.374C418.504 301.307 420.071 302.874 422.004 302.874H422.653C424.586 302.874 426.153 301.307 426.153 299.374V260.211C426.153 258.352 424.704 256.832 422.875 256.717V243.746C422.875 243.444 422.63 243.2 422.328 243.2Z" fill="#FF5972"/>
<path fill-rule="evenodd" clip-rule="evenodd" d="M434.348 247.704C434.046 247.704 433.801 247.948 433.801 248.25V266.851C431.972 266.965 430.523 268.485 430.523 270.344V316.262C430.523 318.121 431.972 319.641 433.801 319.755V354.12C433.801 354.422 434.046 354.667 434.348 354.667C434.649 354.667 434.894 354.422 434.894 354.12V319.755C436.724 319.641 438.172 318.121 438.172 316.262V270.344C438.172 268.485 436.724 266.965 434.894 266.851V248.25C434.894 247.948 434.649 247.704 434.348 247.704Z" fill="#30DEAB"/>
<path fill-rule="evenodd" clip-rule="evenodd" d="M447.135 173.392C445.202 173.392 443.635 174.959 443.635 176.892V299.374C443.635 301.307 445.202 302.874 447.135 302.874H447.784C449.717 302.874 451.284 301.307 451.284 299.374V176.892C451.284 174.959 449.717 173.392 447.784 173.392H447.135Z" fill="#FF5972"/>
<path fill-rule="evenodd" clip-rule="evenodd" d="M459.157 137.363C457.224 137.363 455.657 138.93 455.657 140.863V301.626C455.657 303.484 457.105 305.005 458.935 305.119V307.958C458.935 308.259 459.18 308.504 459.482 308.504C459.783 308.504 460.028 308.259 460.028 307.958V305.119C461.857 305.004 463.306 303.484 463.306 301.626V140.863C463.306 138.93 461.739 137.363 459.806 137.363H459.157Z" fill="#30DEAB"/>
<path fill-rule="evenodd" clip-rule="evenodd" d="M471.5 175.644C471.199 175.644 470.954 175.889 470.954 176.191V184.658C469.124 184.773 467.676 186.293 467.676 188.151V291.492C467.676 293.425 469.243 294.992 471.176 294.992H471.825C473.758 294.992 475.325 293.425 475.325 291.492V188.151C475.325 186.293 473.876 184.773 472.047 184.658V176.191C472.047 175.889 471.802 175.644 471.5 175.644Z" fill="#FF5972"/>
<path fill-rule="evenodd" clip-rule="evenodd" d="M483.52 152C483.218 152 482.973 152.245 482.973 152.546V168.896C481.144 169.011 479.695 170.531 479.695 172.389V213.804C479.695 215.737 481.262 217.304 483.195 217.304H483.844C485.777 217.304 487.344 215.737 487.344 213.804V172.389C487.344 170.531 485.896 169.011 484.066 168.896V152.546C484.066 152.245 483.821 152 483.52 152Z" fill="#30DEAB"/>
<path fill-rule="evenodd" clip-rule="evenodd" d="M496.618 217.303H492.84C492.218 217.303 491.714 216.799 491.714 216.177C491.714 215.556 492.218 215.052 492.84 215.052H496.611C496.618 215.052 496.625 215.051 496.631 215.051C496.638 215.051 496.645 215.052 496.651 215.052H500.423C501.045 215.052 501.549 215.556 501.549 216.177C501.549 216.799 501.045 217.303 500.423 217.303H496.645C496.64 217.303 496.636 217.303 496.631 217.303C496.627 217.303 496.622 217.303 496.618 217.303Z" fill="#FF5972"/>
<path fill-rule="evenodd" clip-rule="evenodd" d="M508.326 224.059C506.393 224.059 504.826 225.626 504.826 227.559V235.196C504.826 237.129 506.393 238.696 508.326 238.696H508.975C510.908 238.696 512.475 237.129 512.475 235.196V227.559C512.475 225.626 510.908 224.059 508.975 224.059H508.326Z" fill="#30DEAB"/>
<path fill-rule="evenodd" clip-rule="evenodd" d="M520.348 217.303C518.415 217.303 516.848 218.87 516.848 220.803V254.337C516.848 256.27 518.415 257.837 520.348 257.837H520.997C522.93 257.837 524.497 256.27 524.497 254.337V220.803C524.497 218.87 522.93 217.303 520.997 217.303H520.348Z" fill="#FF5972"/>
<path fill-rule="evenodd" clip-rule="evenodd" d="M533.46 220.682C531.527 220.682 529.96 222.249 529.96 224.182V231.819C529.96 233.752 531.527 235.319 533.46 235.319H534.109C536.042 235.319 537.609 233.752 537.609 231.819V224.182C537.609 222.249 536.042 220.682 534.109 220.682H533.46Z" fill="#30DEAB"/>
<path fill-rule="evenodd" clip-rule="evenodd" d="M557.5 235C557.224 235 557 235.224 557 235.5V238.732C555.303 238.974 553.998 240.433 553.998 242.197V249.834C553.998 251.598 555.303 253.057 557 253.299V257.5C557 257.776 557.224 258 557.5 258C557.776 258 558 257.776 558 257.5V253.298C559.695 253.055 560.998 251.597 560.998 249.834V242.197C560.998 240.434 559.695 238.976 558 238.732V235.5C558 235.224 557.776 235 557.5 235Z" fill="#30DEAB"/>
<path fill-rule="evenodd" clip-rule="evenodd" d="M543.105 231.941C542.483 231.941 541.979 232.445 541.979 233.066C541.979 233.688 542.483 234.192 543.105 234.192H546.865C546.875 234.193 546.886 234.193 546.897 234.193C546.908 234.193 546.918 234.193 546.929 234.192H550.688C551.309 234.192 551.813 233.688 551.813 233.066C551.813 232.445 551.309 231.941 550.688 231.941H543.105Z" fill="#30DEAB"/>
<path fill-rule="evenodd" clip-rule="evenodd" d="M566.05 264.593C565.429 264.593 564.925 265.097 564.925 265.719C564.925 266.34 565.429 266.844 566.05 266.844H569.811C569.821 266.845 569.831 266.845 569.841 266.845C569.851 266.845 569.861 266.845 569.871 266.844H573.634C574.255 266.844 574.759 266.34 574.759 265.719C574.759 265.097 574.255 264.593 573.634 264.593H566.05Z" fill="#30DEAB"/>
</svg>
